<svg xmlns="http://www.w3.org/2000/svg" width="76.265" height="65.885"><path d="M76.249 18.154C76.249 8.128 68.12 0 58.094 0 48.067 0 39.94 8.128 39.94 18.154c0 10.027 8.127 18.154 18.154 18.154 2.06 0 4.033-.359 5.88-.992-4.086 23.431-22.358 38.542-5.42 26.106 18.782-13.79 17.715-42.713 17.694-43.243v-.025Zm-39.94 0C36.309 8.128 28.181 0 18.155 0 8.128 0 0 8.128 0 18.154c0 10.027 8.128 18.154 18.155 18.154 2.06 0 4.033-.359 5.88-.992-4.086 23.431-22.358 38.542-5.42 26.106 18.782-13.79 17.714-42.713 17.693-43.243l.001-.025Z" fill="#f85903" fill-rule="evenodd" data-name="Path 126"/></svg>