<svg xmlns="http://www.w3.org/2000/svg" width="32.845" height="31.275" viewBox="0 10.915 32.845 31.275"><path d="M24.877 34.55a3.82 3.82 0 1 0 3.816 3.824v-.004a3.823 3.823 0 0 0-3.816-3.82Zm6.775-18.29a1.47 1.47 0 0 0-.278-.026H8.118L7.75 13.77a3.315 3.315 0 0 0-3.282-2.855H1.473a1.473 1.473 0 1 0 0 2.947h2.999a.368.368 0 0 1 .368.324l2.269 15.55a4.074 4.074 0 0 0 4.01 3.44h15.327a4.052 4.052 0 0 0 3.974-3.237l2.398-11.952a1.473 1.473 0 0 0-1.166-1.726ZM15.52 38.208a3.82 3.82 0 0 0-3.83-3.653 3.82 3.82 0 0 0 .09 7.636h.091a3.82 3.82 0 0 0 3.649-3.983Z" fill="#f85903" fill-rule="evenodd" data-name="Path 33"/></svg>