<svg xmlns="http://www.w3.org/2000/svg" width="28.942" height="32.333" viewBox="24.165 0 28.942 32.333"><path d="M38.638 16.79c4.62 0 8.395-3.776 8.395-8.395 0-4.62-3.776-8.395-8.395-8.395s-8.395 3.776-8.395 8.395c0 4.62 3.776 8.395 8.395 8.395Zm14.407 6.709a7.826 7.826 0 0 0-.843-1.54c-1.686-2.493-4.289-4.143-7.222-4.546-.366-.037-.77.037-1.063.257a8.832 8.832 0 0 1-5.279 1.723 8.832 8.832 0 0 1-5.279-1.723 1.376 1.376 0 0 0-1.063-.257 10.36 10.36 0 0 0-7.222 4.546 9.024 9.024 0 0 0-.843 1.54c-.11.22-.073.476.037.696.293.513.66 1.027.99 1.467.513.696 1.063 1.32 1.686 1.906.513.513 1.1.99 1.686 1.466a16.609 16.609 0 0 0 9.972 3.3c3.592 0 7.075-1.137 9.97-3.3a16.12 16.12 0 0 0 1.687-1.466c.587-.587 1.173-1.21 1.687-1.906.366-.477.696-.954.99-1.467.183-.22.22-.477.11-.696Z" fill="#f85903" fill-rule="evenodd" data-name="Path 34"/></svg>