<svg xmlns="http://www.w3.org/2000/svg" width="16.611" height="17.822" viewBox="0.872 0 16.611 17.822"><path d="M15.622 12.405c-1.077-.921-2.17-1.48-3.233-.56l-.635.556c-.465.403-1.328 2.288-4.668-1.554-3.34-3.837-1.352-4.434-.887-4.834l.638-.557c1.058-.921.659-2.081-.104-3.276l-.46-.723C5.506.266 4.672-.517 3.61.403l-.573.501c-.469.342-1.78 1.452-2.097 3.56-.383 2.53.824 5.428 3.589 8.608 2.76 3.18 5.464 4.778 8.025 4.75 2.129-.023 3.414-1.165 3.816-1.58l.575-.502c1.058-.92.4-1.855-.677-2.778l-.647-.557Z" fill="#f85903" fill-rule="evenodd" data-name="Path 1"/></svg>