<svg xmlns="http://www.w3.org/2000/svg" width="57.81" height="49.942"><path d="M57.798 13.761C57.798 6.161 51.637 0 44.036 0c-7.6 0-13.761 6.16-13.761 13.761 0 7.6 6.161 13.761 13.761 13.761 1.562 0 3.058-.272 4.457-.752-3.097 17.761-16.947 29.215-4.108 19.788C58.622 36.105 57.813 14.182 57.797 13.78v-.019Zm-30.275 0C27.523 6.161 21.362 0 13.76 0 6.161 0 0 6.16 0 13.761c0 7.6 6.161 13.761 13.762 13.761 1.562 0 3.057-.272 4.456-.752-3.096 17.761-16.947 29.215-4.108 19.788C28.347 36.105 27.538 14.182 27.522 13.78v-.019Z" fill="#f85903" fill-rule="evenodd" data-name="Path 126"/></svg>