<svg xmlns="http://www.w3.org/2000/svg" width="57.81" height="49.942"><path d="M.012 36.181c0 7.6 6.161 13.761 13.762 13.761 7.6 0 13.761-6.16 13.761-13.761 0-7.6-6.16-13.761-13.761-13.761-1.562 0-3.058.272-4.457.752C12.414 5.41 26.264-6.044 13.425 3.383-.812 13.837-.003 35.76.013 36.163v.018Zm30.275 0c0 7.6 6.161 13.761 13.762 13.761 7.6 0 13.761-6.16 13.761-13.761 0-7.6-6.161-13.761-13.761-13.761-1.563 0-3.058.272-4.457.752C42.689 5.41 56.539-6.044 43.7 3.383 29.463 13.837 30.272 35.76 30.288 36.163v.018Z" fill="#f85903" fill-rule="evenodd" data-name="Path 126"/></svg>